# xmcd CD database file generated by Grip 3.0.0
# 
# Track frame offsets:
#       150
#       12420
#       27245
#       38003
#       59213
#       80685
#       92198
#       104485
#       114898
#       126933
#       143770
#       156628
#       168828
#       183043
# 
# Disc length: 2647 seconds
# 
# Revision: 2
# Processed by: cddbd v1.4PL0 Copyright (c) Steve Scherf et al.
# Submitted via: Grip 3.0.0
# 
DISCID=bb0a550e
DTITLE=Johnny Winter - Gold
DYEAR=1993
DGENRE=Blues
TTITLE0=Parchman Farm
TTITLE1=Pick Up On My Mojo
TTITLE2=Out Of Sight
TTITLE3=Going Down Slow
TTITLE4=Raised On Rock
TTITLE5=Avocado Green
TTITLE6=Rock 'N Roll People
TTITLE7=38, 32, 20
TTITLE8=Bad News
TTITLE9=Kind Hearted Woman
TTITLE10=Leavin' Blues
TTITLE11=Livin' In The Blues
TTITLE12=Low Down Gal Of Mine
TTITLE13=Self Destruction Blues
EXTD=
EXTT0=
EXTT1=
EXTT2=
EXTT3=
EXTT4=
EXTT5=
EXTT6=
EXTT7=
EXTT8=
EXTT9=
EXTT10=
EXTT11=
EXTT12=
EXTT13=
PLAYORDER=
